<?xml version="1.0" encoding="UTF-8" standalone="no"?>
<!-- Created with Inkscape (http://www.inkscape.org/) -->

<svg
   version="1.1"
   id="svg1"
   width="1024"
   height="1024"
   viewBox="0 0 1024 1024"
   sodipodi:docname="escribamed_logo_vector.svg"
   inkscape:version="1.4 (e7c3feb1, 2024-10-09)"
   inkscape:export-filename="escribamed_logo_vector.png"
   inkscape:export-xdpi="96"
   inkscape:export-ydpi="96"
   xmlns:inkscape="http://www.inkscape.org/namespaces/inkscape"
   xmlns:sodipodi="http://sodipodi.sourceforge.net/DTD/sodipodi-0.dtd"
   xmlns="http://www.w3.org/2000/svg"
   xmlns:svg="http://www.w3.org/2000/svg">
  <defs
     id="defs1">
    <inkscape:path-effect
       effect="powerclip"
       message=""
       id="path-effect4"
       is_visible="true"
       lpeversion="1"
       inverse="true"
       flatten="false"
       hide_clip="false" />
    <clipPath
       clipPathUnits="userSpaceOnUse"
       id="clipPath2">
      <rect
         style="fill:#ffffff;fill-opacity:0.524407;stroke:none;stroke-width:24.2255"
         id="rect3"
         width="398.53867"
         height="258.14777"
         x="1025.6772"
         y="213.75873" />
    </clipPath>
    <clipPath
       clipPathUnits="userSpaceOnUse"
       id="clipPath3">
      <rect
         style="display:none;fill:#ffffff;fill-opacity:0.524407;stroke:none;stroke-width:24.2255"
         id="rect4"
         width="398.53867"
         height="258.14777"
         x="284.69644"
         y="379.91565"
         d="M 284.69644,379.91565 H 683.23511 V 638.06342 H 284.69644 Z" />
      <path
         id="lpe_path-effect4"
         style="fill:#ffffff;fill-opacity:0.524407;stroke:none;stroke-width:24.2255"
         class="powerclip"
         d="m 251.01922,193.15692 h 465.75469 v 589.4564 H 251.01922 Z m 33.67722,186.75873 V 638.06342 H 683.23511 V 379.91565 Z" />
    </clipPath>
  </defs>
  <sodipodi:namedview
     id="namedview1"
     pagecolor="#505050"
     bordercolor="#ffffff"
     borderopacity="1"
     inkscape:showpageshadow="0"
     inkscape:pageopacity="0"
     inkscape:pagecheckerboard="1"
     inkscape:deskcolor="#505050"
     inkscape:zoom="0.36189663"
     inkscape:cx="349.54732"
     inkscape:cy="436.58875"
     inkscape:window-width="1920"
     inkscape:window-height="1027"
     inkscape:window-x="0"
     inkscape:window-y="25"
     inkscape:window-maximized="1"
     inkscape:current-layer="g1" />
  <g
     inkscape:groupmode="layer"
     inkscape:label="Image"
     id="g1">
    <rect
       style="fill:#ffffff;fill-opacity:1;stroke:none;stroke-width:15.1081"
       id="rect5"
       width="1024"
       height="1024"
       x="0"
       y="0" />
    <g
       id="g5">
      <path
         style="fill:#008284;fill-opacity:1"
         d="m 314.9186,777.01081 c -22.73128,-2.59508 -42.43295,-15.99396 -51.87609,-35.28036 -7.68119,-15.68783 -7.18318,0.63415 -6.88814,-225.75426 l 0.26423,-202.74574 2.72638,-7.47377 c 11.23185,-30.78961 31.6871,-41.32065 80.52,-41.45436 l 26.24638,-0.0719 0.007,-3.5 c 0.0233,-11.08309 4.99398,-13 33.70988,-13 26.03409,0 25.55502,0.13669 27.18581,-7.75697 11.19895,-54.20716 96.37221,-56.31977 112.26345,-2.78456 3.06637,10.33015 1.28395,9.67585 27.98083,10.27138 29.3621,0.655 33.838,2.40919 33.8593,13.27015 l 0.007,3.5 26.74688,0.0574 c 50.2637,0.10788 70.99684,11.68174 81.41752,45.44971 l 2.31228,7.49288 0.29842,196.5 c 0.21207,139.64183 -0.0223,198.95514 -0.80997,204.98488 -4.09165,31.32233 -26.15771,53.59651 -57.40062,57.942 -7.32279,1.0185 -329.79645,1.35518 -338.57076,0.35348 z m 345,-30.5409 c 9.88279,-3.86644 18.64553,-13.21573 22.23726,-23.72574 0.88683,-2.59501 1.28275,-25.54204 1.51422,-87.76372 l 0.31343,-84.25 -19.78246,-0.0309 c -47.54826,-0.0742 -53.99028,-5.34886 -65.30254,-53.4691 -9.96638,-42.39509 -13.35467,-38.40371 -22.49586,26.5 -13.50513,95.88828 -21.61107,113.48496 -51.48405,111.76353 -26.56669,-1.53091 -33.71639,-17.97562 -45.98301,-105.76353 -2.80509,-20.075 -6.90419,-49.43241 -9.10911,-65.23868 -5.07825,-36.40404 -7.14241,-43.37919 -13.55919,-45.81885 -8.83181,-3.35785 -13.04524,11.77481 -23.82205,85.55753 -8.18264,56.02198 -15.28858,71.58672 -33.84331,74.12993 -18.28633,2.50642 -27.58137,-10.6232 -35.7163,-50.45074 -7.69531,-37.67521 -7.22491,-37.21689 -14.55294,-14.17919 -9.9058,31.14166 -18.4413,36.91623 -54.66409,36.98223 l -9.75,0.0178 v 83.39466 c 0,80.88691 0.0608,83.59164 2.02309,89.94469 3.47323,11.24498 14.67263,21.29565 26.33196,23.63106 9.35533,1.8739 342.72598,0.6935 347.64495,-1.23095 z M 531.85399,606.79961 c 5.81092,-6.2206 9.28658,-22.31974 18.04185,-83.56916 9.73766,-68.12195 15.74307,-80.52167 39.0521,-80.63315 18.92528,-0.0905 25.91339,11.09022 39.06931,62.50959 4.62691,18.0841 6.49679,19.12356 34.40135,19.12356 h 21 v -101 -101 l -2.3206,-5.74666 c -3.06375,-7.58697 -10.75486,-15.90647 -17.98931,-19.4591 l -5.69009,-2.79424 -28.25,-0.30712 -28.25,-0.30712 v 8.58924 c 0,12.70938 -3.59579,19.50662 -12.5,23.62914 -6.21752,2.87862 -203.78248,2.87862 -210,0 -8.90737,-4.12398 -12.5,-10.91882 -12.5,-23.64161 v -8.60172 l -28.25,0.3196 -28.25,0.31959 -5.69009,2.79424 c -20.41003,10.02277 -19.80991,6.166 -19.80991,127.3111 v 100.39466 l 11.25,-0.0239 c 21.70378,-0.046 22.50294,-0.62439 29.79036,-21.55974 9.89023,-28.41274 15.73861,-35.33723 29.89392,-35.39444 15.85769,-0.0641 23.21209,10.64725 30.53861,44.47804 4.80857,22.20394 8.46625,36.79399 9.48611,37.83889 2.20003,2.25406 6.97006,-18.03255 11.01331,-46.83889 11.09195,-79.02521 16.3945,-97.08809 31.5654,-107.52594 16.05212,-11.04415 37.20788,-4.22345 47.03187,15.16325 6.87188,13.56099 8.62921,22.64693 16.99375,87.86269 11.34206,88.43055 14.97724,105.44737 23.43667,109.71061 3.47824,1.7529 3.84587,1.66589 6.93539,-1.64145 z M 512.26357,252.54627 c 7.43006,-11.78562 -19.50429,-30.64837 -37.00231,-25.91357 -12.76429,3.4539 -26.42139,23.71572 -18.2182,27.02872 4.55267,1.83868 53.98769,0.84035 55.22051,-1.11515 z"
         id="path2"
         clip-path="url(#clipPath3)"
         inkscape:path-effect="#path-effect4"
         inkscape:original-d="m 314.9186,777.01081 c -22.73128,-2.59508 -42.43295,-15.99396 -51.87609,-35.28036 -7.68119,-15.68783 -7.18318,0.63415 -6.88814,-225.75426 l 0.26423,-202.74574 2.72638,-7.47377 c 11.23185,-30.78961 31.6871,-41.32065 80.52,-41.45436 l 26.24638,-0.0719 0.007,-3.5 c 0.0233,-11.08309 4.99398,-13 33.70988,-13 26.03409,0 25.55502,0.13669 27.18581,-7.75697 11.19895,-54.20716 96.37221,-56.31977 112.26345,-2.78456 3.06637,10.33015 1.28395,9.67585 27.98083,10.27138 29.3621,0.655 33.838,2.40919 33.8593,13.27015 l 0.007,3.5 26.74688,0.0574 c 50.2637,0.10788 70.99684,11.68174 81.41752,45.44971 l 2.31228,7.49288 0.29842,196.5 c 0.21207,139.64183 -0.0223,198.95514 -0.80997,204.98488 -4.09165,31.32233 -26.15771,53.59651 -57.40062,57.942 -7.32279,1.0185 -329.79645,1.35518 -338.57076,0.35348 z m 345,-30.5409 c 9.88279,-3.86644 18.64553,-13.21573 22.23726,-23.72574 0.88683,-2.59501 1.28275,-25.54204 1.51422,-87.76372 l 0.31343,-84.25 -19.78246,-0.0309 c -47.54826,-0.0742 -53.99028,-5.34886 -65.30254,-53.4691 -9.96638,-42.39509 -13.35467,-38.40371 -22.49586,26.5 -13.50513,95.88828 -21.61107,113.48496 -51.48405,111.76353 -26.56669,-1.53091 -33.71639,-17.97562 -45.98301,-105.76353 -2.80509,-20.075 -6.90419,-49.43241 -9.10911,-65.23868 -5.07825,-36.40404 -7.14241,-43.37919 -13.55919,-45.81885 -8.83181,-3.35785 -13.04524,11.77481 -23.82205,85.55753 -8.18264,56.02198 -15.28858,71.58672 -33.84331,74.12993 -18.28633,2.50642 -27.58137,-10.6232 -35.7163,-50.45074 -7.69531,-37.67521 -7.22491,-37.21689 -14.55294,-14.17919 -9.9058,31.14166 -18.4413,36.91623 -54.66409,36.98223 l -9.75,0.0178 v 83.39466 c 0,80.88691 0.0608,83.59164 2.02309,89.94469 3.47323,11.24498 14.67263,21.29565 26.33196,23.63106 9.35533,1.8739 342.72598,0.6935 347.64495,-1.23095 z M 531.85399,606.79961 c 5.81092,-6.2206 9.28658,-22.31974 18.04185,-83.56916 9.73766,-68.12195 15.74307,-80.52167 39.0521,-80.63315 18.92528,-0.0905 25.91339,11.09022 39.06931,62.50959 4.62691,18.0841 6.49679,19.12356 34.40135,19.12356 h 21 v -101 -101 l -2.3206,-5.74666 c -3.06375,-7.58697 -10.75486,-15.90647 -17.98931,-19.4591 l -5.69009,-2.79424 -28.25,-0.30712 -28.25,-0.30712 v 8.58924 c 0,12.70938 -3.59579,19.50662 -12.5,23.62914 -6.21752,2.87862 -203.78248,2.87862 -210,0 -8.90737,-4.12398 -12.5,-10.91882 -12.5,-23.64161 v -8.60172 l -28.25,0.3196 -28.25,0.31959 -5.69009,2.79424 c -20.41003,10.02277 -19.80991,6.166 -19.80991,127.3111 v 100.39466 l 11.25,-0.0239 c 21.70378,-0.046 22.50294,-0.62439 29.79036,-21.55974 9.89023,-28.41274 15.73861,-35.33723 29.89392,-35.39444 15.85769,-0.0641 23.21209,10.64725 30.53861,44.47804 4.80857,22.20394 8.46625,36.79399 9.48611,37.83889 2.20003,2.25406 6.97006,-18.03255 11.01331,-46.83889 11.09195,-79.02521 16.3945,-97.08809 31.5654,-107.52594 16.05212,-11.04415 37.20788,-4.22345 47.03187,15.16325 6.87188,13.56099 8.62921,22.64693 16.99375,87.86269 11.34206,88.43055 14.97724,105.44737 23.43667,109.71061 3.47824,1.7529 3.84587,1.66589 6.93539,-1.64145 z M 512.26357,252.54627 c 7.43006,-11.78562 -19.50429,-30.64837 -37.00231,-25.91357 -12.76429,3.4539 -26.42139,23.71572 -18.2182,27.02872 4.55267,1.83868 53.98769,0.84035 55.22051,-1.11515 z"
         transform="matrix(1.2067895,0,0,1.2067895,-71.961291,-76.774637)" />
      <path
         style="fill:#ff6c5e;fill-opacity:1"
         d="m 1055.8994,610.85389 c -22.7313,-2.59508 -42.433,-15.99396 -51.8761,-35.28036 -7.6812,-15.68783 -7.18319,0.63415 -6.88815,-225.75426 l 0.26423,-202.74574 2.72642,-7.47377 c 11.2318,-30.78961 31.6871,-41.32065 80.52,-41.45436 l 26.2463,-0.0719 0.01,-3.5 c 0.023,-11.08309 4.994,-13 33.7099,-13 26.0341,0 25.555,0.13669 27.1858,-7.75697 11.199,-54.20716 96.3722,-56.31977 112.2635,-2.78456 3.0664,10.33015 1.2839,9.67585 27.9808,10.27138 29.3621,0.655 33.838,2.40919 33.8593,13.27015 l 0.01,3.5 26.7469,0.0574 c 50.2637,0.10788 70.9968,11.68174 81.4175,45.44971 l 2.3123,7.49288 0.2984,196.5 c 0.2121,139.64183 -0.022,198.95514 -0.81,204.98488 -4.0916,31.32233 -26.1577,53.59651 -57.4006,57.942 -7.3228,1.0185 -329.7964,1.35518 -338.5707,0.35348 z m 345,-30.5409 c 9.8828,-3.86644 18.6455,-13.21573 22.2372,-23.72574 0.8869,-2.59501 1.2828,-25.54204 1.5143,-87.76372 l 0.3134,-84.25 -19.7825,-0.0309 c -47.5482,-0.0742 -53.9902,-5.34886 -65.3025,-53.4691 -9.9664,-42.39509 -13.3547,-38.40371 -22.4959,26.5 -13.5051,95.88828 -21.611,113.48496 -51.484,111.76353 -26.5667,-1.53091 -33.7164,-17.97562 -45.983,-105.76353 -2.8051,-20.075 -6.9042,-49.43241 -9.1091,-65.23868 -5.0783,-36.40404 -7.1424,-43.37919 -13.5592,-45.81885 -8.8318,-3.35785 -13.0453,11.77481 -23.8221,85.55753 -8.1826,56.02198 -15.2886,71.58672 -33.8433,74.12993 -18.2863,2.50642 -27.5814,-10.6232 -35.7163,-50.45074 -7.6953,-37.67521 -7.2249,-37.21689 -14.5529,-14.17919 -9.9058,31.14166 -18.4413,36.91623 -54.6641,36.98223 l -9.75,0.0178 v 83.39466 c 0,80.88691 0.061,83.59164 2.0231,89.94469 3.4732,11.24498 14.6726,21.29565 26.3319,23.63106 9.3554,1.8739 342.726,0.6935 347.645,-1.23095 z m -128.0646,-139.6703 c 5.8109,-6.2206 9.2865,-22.31974 18.0418,-83.56916 9.7377,-68.12195 15.7431,-80.52167 39.0521,-80.63315 18.9253,-0.0905 25.9134,11.09022 39.0693,62.50959 4.6269,18.0841 6.4968,19.12356 34.4014,19.12356 h 21 v -101 -101 l -2.3206,-5.74666 c -3.0638,-7.58697 -10.7549,-15.90647 -17.9893,-19.4591 l -5.6901,-2.79424 -28.25,-0.30712 -28.25,-0.30712 v 8.58924 c 0,12.70938 -3.5958,19.50662 -12.5,23.62914 -6.2175,2.87862 -203.7825,2.87862 -210,0 -8.9074,-4.12398 -12.5,-10.91882 -12.5,-23.64161 v -8.60172 l -28.25,0.3196 -28.25,0.31959 -5.6901,2.79424 c -20.41,10.02277 -19.8099,6.166 -19.8099,127.3111 v 100.39466 l 11.25,-0.0239 c 21.7038,-0.046 22.5029,-0.62439 29.7903,-21.55974 9.8903,-28.41274 15.7386,-35.33723 29.894,-35.39444 15.8576,-0.0641 23.212,10.64725 30.5386,44.47804 4.8085,22.20394 8.4662,36.79399 9.4861,37.83889 2.2,2.25406 6.97,-18.03255 11.0133,-46.83889 11.0919,-79.02521 16.3945,-97.08809 31.5654,-107.52594 16.0521,-11.04415 37.2079,-4.22345 47.0319,15.16325 6.8718,13.56099 8.6292,22.64693 16.9937,87.86269 11.3421,88.43055 14.9772,105.44737 23.4367,109.71061 3.4782,1.7529 3.8458,1.66589 6.9354,-1.64145 z M 1253.2444,86.38935 c 7.43,-11.78562 -19.5043,-30.64837 -37.0024,-25.91357 -12.7642,3.4539 -26.4214,23.71572 -18.2182,27.02872 4.5527,1.83868 53.9877,0.84035 55.2206,-1.11515 z"
         id="path2-8"
         clip-path="url(#clipPath2)"
         transform="matrix(1.2067895,0,0,1.2067895,-966.25268,123.85515)" />
    </g>
  </g>
</svg>
