<?xml version="1.0" encoding="UTF-8" standalone="no"?>
<!-- Created with Inkscape (http://www.inkscape.org/) -->

<svg
   version="1.1"
   id="svg1"
   width="1024"
   height="1024"
   viewBox="0 0 1024 1024"
   sodipodi:docname="escribamed_logo_vector.svg"
   inkscape:version="1.4 (e7c3feb1, 2024-10-09)"
   inkscape:export-filename="escribamed_logo_vector.png"
   inkscape:export-xdpi="96"
   inkscape:export-ydpi="96"
   xmlns:inkscape="http://www.inkscape.org/namespaces/inkscape"
   xmlns:sodipodi="http://sodipodi.sourceforge.net/DTD/sodipodi-0.dtd"
   xmlns="http://www.w3.org/2000/svg"
   xmlns:svg="http://www.w3.org/2000/svg">
  <defs
     id="defs1">
    <inkscape:path-effect
       effect="powerclip"
       message=""
       id="path-effect12"
       is_visible="true"
       lpeversion="1"
       inverse="true"
       flatten="false"
       hide_clip="false" />
    <inkscape:path-effect
       effect="powerclip"
       message=""
       id="path-effect4"
       is_visible="true"
       lpeversion="1"
       inverse="true"
       flatten="false"
       hide_clip="false" />
    <clipPath
       clipPathUnits="userSpaceOnUse"
       id="clipPath10">
      <rect
         style="fill:#ffffff;fill-opacity:0.524407;stroke:none;stroke-width:26.8601;stroke-dasharray:none"
         id="rect11"
         width="371.76941"
         height="306.33243"
         x="1038.6794"
         y="200.75648" />
    </clipPath>
    <clipPath
       clipPathUnits="userSpaceOnUse"
       id="clipPath11">
      <path
         id="lpe_path-effect12"
         style="display:block;fill:#ffffff;fill-opacity:0.524407;stroke:none;stroke-width:24.3864"
         class="powerclip"
         d="M 238.58639,181.17195 H 729.20358 V 795.04297 H 238.58639 Z m 58.34745,179.62279 v 280.4237 h 371.76938 v -280.4237 z" />
    </clipPath>
  </defs>
  <sodipodi:namedview
     id="namedview1"
     pagecolor="#505050"
     bordercolor="#ffffff"
     borderopacity="1"
     inkscape:showpageshadow="0"
     inkscape:pageopacity="0"
     inkscape:pagecheckerboard="1"
     inkscape:deskcolor="#505050"
     inkscape:zoom="0.55444716"
     inkscape:cx="359.81788"
     inkscape:cy="405.80964"
     inkscape:window-width="1920"
     inkscape:window-height="1027"
     inkscape:window-x="0"
     inkscape:window-y="25"
     inkscape:window-maximized="1"
     inkscape:current-layer="g1" />
  <g
     inkscape:groupmode="layer"
     inkscape:label="Image"
     id="g1">
    <rect
       style="fill:#ffffff;fill-opacity:1;stroke:none;stroke-width:15.1081"
       id="rect5"
       width="1024"
       height="1024"
       x="0"
       y="0" />
    <path
       style="fill:#ff695c;fill-opacity:1;stroke:#ff695c;stroke-width:24.8593;stroke-dasharray:none;stroke-opacity:1"
       d="m 1055.8994,610.85389 c -22.7313,-2.59508 -42.433,-15.99396 -51.8761,-35.28036 -7.6812,-15.68783 -7.18319,0.63415 -6.88815,-225.75426 l 0.26423,-202.74574 2.72642,-7.47377 c 11.2318,-30.78961 31.6871,-41.32065 80.52,-41.45436 l 26.2463,-0.0719 0.01,-3.5 c 0.023,-11.08309 4.994,-13 33.7099,-13 26.0341,0 25.555,0.13669 27.1858,-7.75697 11.199,-54.20716 96.3722,-56.31977 112.2635,-2.78456 3.0664,10.33015 1.2839,9.67585 27.9808,10.27138 29.3621,0.655 33.838,2.40919 33.8593,13.27015 l 0.01,3.5 26.7469,0.0574 c 50.2637,0.10788 70.9968,11.68174 81.4175,45.44971 l 2.3123,7.49288 0.2984,196.5 c 0.2121,139.64183 -0.022,198.95514 -0.81,204.98488 -4.0916,31.32233 -26.1577,53.59651 -57.4006,57.942 -7.3228,1.0185 -329.7964,1.35518 -338.5707,0.35348 z m 345,-30.5409 c 9.8828,-3.86644 18.6455,-13.21573 22.2372,-23.72574 0.8869,-2.59501 1.2828,-25.54204 1.5143,-87.76372 l 0.3134,-84.25 -19.7825,-0.0309 c -47.5482,-0.0742 -53.9902,-5.34886 -65.3025,-53.4691 -9.9664,-42.39509 -13.3547,-38.40371 -22.4959,26.5 -13.5051,95.88828 -21.611,113.48496 -51.484,111.76353 -26.5667,-1.53091 -33.7164,-17.97562 -45.983,-105.76353 -2.8051,-20.075 -6.9042,-49.43241 -9.1091,-65.23868 -5.0783,-36.40404 -7.1424,-43.37919 -13.5592,-45.81885 -8.8318,-3.35785 -13.0453,11.77481 -23.8221,85.55753 -8.1826,56.02198 -15.2886,71.58672 -33.8433,74.12993 -18.2863,2.50642 -27.5814,-10.6232 -35.7163,-50.45074 -7.6953,-37.67521 -7.2249,-37.21689 -14.5529,-14.17919 -9.9058,31.14166 -18.4413,36.91623 -54.6641,36.98223 l -9.75,0.0178 v 83.39466 c 0,80.88691 0.061,83.59164 2.0231,89.94469 3.4732,11.24498 14.6726,21.29565 26.3319,23.63106 9.3554,1.8739 342.726,0.6935 347.645,-1.23095 z m -128.0646,-139.6703 c 5.8109,-6.2206 9.2865,-22.31974 18.0418,-83.56916 9.7377,-68.12195 15.7431,-80.52167 39.0521,-80.63315 18.9253,-0.0905 25.9134,11.09022 39.0693,62.50959 4.6269,18.0841 6.4968,19.12356 34.4014,19.12356 h 21 v -101 -101 l -2.3206,-5.74666 c -3.0638,-7.58697 -10.7549,-15.90647 -17.9893,-19.4591 l -5.6901,-2.79424 -28.25,-0.30712 -28.25,-0.30712 v 8.58924 c 0,12.70938 -3.5958,19.50662 -12.5,23.62914 -6.2175,2.87862 -203.7825,2.87862 -210,0 -8.9074,-4.12398 -12.5,-10.91882 -12.5,-23.64161 v -8.60172 l -28.25,0.3196 -28.25,0.31959 -5.6901,2.79424 c -20.41,10.02277 -19.8099,6.166 -19.8099,127.3111 v 100.39466 l 11.25,-0.0239 c 21.7038,-0.046 22.5029,-0.62439 29.7903,-21.55974 9.8903,-28.41274 15.7386,-35.33723 29.894,-35.39444 15.8576,-0.0641 23.212,10.64725 30.5386,44.47804 4.8085,22.20394 8.4662,36.79399 9.4861,37.83889 2.2,2.25406 6.97,-18.03255 11.0133,-46.83889 11.0919,-79.02521 16.3945,-97.08809 31.5654,-107.52594 16.0521,-11.04415 37.2079,-4.22345 47.0319,15.16325 6.8718,13.56099 8.6292,22.64693 16.9937,87.86269 11.3421,88.43055 14.9772,105.44737 23.4367,109.71061 3.4782,1.7529 3.8458,1.66589 6.9354,-1.64145 z M 1253.2444,86.38935 c 7.43,-11.78562 -19.5043,-30.64837 -37.0024,-25.91357 -12.7642,3.4539 -26.4214,23.71572 -18.2182,27.02872 4.5527,1.83868 53.9877,0.84035 55.2206,-1.11515 z"
       id="path2-8"
       clip-path="url(#clipPath10)"
       transform="matrix(1.2194977,0,0,1.2067895,-984.17691,123.85515)" />
    <path
       id="path2"
       clip-path="url(#clipPath11)"
       style="fill:#008284;fill-opacity:1;stroke:#008285;stroke-width:24.8593;stroke-dasharray:none;stroke-opacity:1"
       d="M 481.18566 198.17823 C 456.50608 198.79037 432.41341 212.86942 426.81393 239.973 C 425.18314 247.86666 425.66297 247.73022 399.62888 247.73022 C 370.91298 247.73022 365.94154 249.64812 365.91824 260.73121 L 365.91177 264.23029 L 339.66541 264.30312 C 290.83251 264.43683 270.37628 274.9668 259.14443 305.75641 L 256.41896 313.2304 L 256.15516 515.9765 C 255.86012 742.36491 255.36208 726.04263 263.04327 741.73046 C 272.48619 761.0164 292.18713 774.41546 314.91774 777.01099 L 314.91935 777.01099 C 323.69817 778.01266 646.16605 777.67504 653.48878 776.65655 C 684.73169 772.31106 706.7986 750.03685 710.89025 718.71452 C 711.67792 712.68478 711.91154 653.37193 711.69947 513.7301 L 711.40168 317.2312 L 709.08891 309.73779 C 698.66823 275.96982 677.93501 264.39643 627.67131 264.28855 L 600.92486 264.23029 L 600.91838 260.73121 C 600.89708 249.87025 596.42095 248.11494 567.05885 247.45994 C 540.36197 246.86441 542.14389 247.51943 539.07752 237.18928 C 531.1319 210.42167 505.86525 197.56608 481.18566 198.17823 z M 482.17939 225.90384 C 489.43924 226.16333 497.24837 229.26532 503.26614 233.52673 L 464.12561 233.52673 C 467.5221 230.33699 471.39645 227.67773 475.26053 226.63215 C 477.44778 226.0403 479.7828 225.81818 482.17939 225.90384 z M 507.5 237.12454 C 512.64075 242.11456 515.2125 247.86834 512.26309 252.54672 C 512.05157 252.88223 510.07919 253.1753 507.5 253.44496 L 507.5 237.12454 z M 365.91824 293.59054 L 365.91824 302.19259 C 365.91824 314.91538 369.51176 321.71088 378.41913 325.83486 C 384.63665 328.71348 582.2016 328.71348 588.41912 325.83486 C 597.32333 321.71234 600.91838 314.91491 600.91838 302.20553 L 600.91838 293.61643 L 629.16838 293.92394 L 657.41837 294.22983 L 663.10883 297.02488 C 670.34328 300.57751 678.03412 308.8965 681.09787 316.48347 L 683.41872 322.23058 L 683.41872 423.22977 L 683.41872 524.23058 L 662.41937 524.23058 C 634.51481 524.23058 632.64457 523.19111 628.01766 505.10701 C 614.86174 453.68764 607.87363 442.50723 588.94835 442.59773 C 565.63932 442.70921 559.63288 455.10843 549.89522 523.23038 C 541.13995 584.4798 537.66531 600.5783 531.85439 606.7989 C 528.76487 610.10624 528.39758 610.19453 524.91934 608.44163 C 516.45991 604.17839 512.82467 587.16088 501.48261 498.73033 C 493.11807 433.51457 491.36079 424.42906 484.48891 410.86807 C 474.66492 391.48137 453.50896 384.66069 437.45684 395.70484 C 422.28594 406.14269 416.9826 424.2044 405.89065 503.22961 C 401.8474 532.03595 397.07715 552.32315 394.87712 550.06909 C 393.85726 549.02419 390.19997 534.43374 385.3914 512.2298 C 378.06488 478.39901 370.71061 467.68754 354.85292 467.75164 C 340.69761 467.80885 334.84881 474.73433 324.95858 503.14707 C 317.67116 524.08242 316.8716 524.66041 295.16782 524.70641 L 283.918 524.73068 L 283.918 424.33517 C 283.918 303.19007 283.31776 307.04765 303.72779 297.02488 L 309.41825 294.22983 L 337.66825 293.91099 L 365.91824 293.59054 z M 454.66255 418.26923 C 455.18119 418.32484 455.71606 418.46236 456.26805 418.67223 C 462.68483 421.11189 464.74753 428.08804 469.82578 464.49208 C 472.0307 480.29835 476.13093 509.65507 478.93602 529.73007 C 491.20264 617.51798 498.35265 633.96306 524.91934 635.49397 C 554.79232 637.2154 562.89702 619.61876 576.40215 523.73048 C 585.54334 458.82677 588.93218 454.83494 598.89856 497.23003 C 610.21082 545.35027 616.65302 550.62609 664.20128 550.70029 L 683.98356 550.73104 L 683.66958 634.98092 C 683.43811 697.2026 683.04317 720.14944 682.15634 722.74445 C 678.56461 733.25446 669.80166 742.60283 659.91887 746.46927 C 654.9999 748.39372 321.62852 749.57481 312.27319 747.70091 C 300.61386 745.3655 289.41429 735.31494 285.94106 724.06996 C 283.97877 717.71691 283.918 715.01167 283.918 634.12476 L 283.918 550.73104 L 293.66914 550.71323 C 329.89193 550.64723 338.42639 544.87176 348.33219 513.7301 C 355.66022 490.6924 355.18996 490.2341 362.88527 527.90931 C 371.0202 567.73685 380.31483 580.86759 398.60116 578.36117 C 417.15589 575.81796 424.26187 560.2518 432.44451 504.22982 C 442.54777 435.05852 446.883 417.43517 454.66255 418.26923 z "
       transform="matrix(1.2067895,0,0,1.2067895,-71.961291,-76.774637)" />
  </g>
</svg>
